# Blender v2.79 (sub 0) OBJ File: ''
# www.blender.org
mtllib untitled.mtl
o Cube
v 2.955448 0.110907 -0.297871
v 2.955448 0.110907 1.021073
v -1.169267 0.110907 1.021073
v -1.169267 0.110907 -0.297872
v 2.955449 1.367615 -0.297871
v 2.955448 1.367615 1.021074
v -1.169268 1.367615 1.021073
v -1.169267 1.367615 -0.297871
vt 0.000000 0.000000
vt 0.256041 0.000000
vt 0.256041 0.757710
vt 0.000000 0.757710
vt 0.512082 0.000000
vt 0.512082 0.757710
vt 0.256041 0.757710
vt 0.256041 0.000000
vt 0.000000 0.757710
vt 0.243959 0.757710
vt 0.243959 1.000000
vt 0.000000 1.000000
vt 0.756041 0.757710
vt 0.512082 0.757710
vt 0.512082 0.000000
vt 0.756041 0.000000
vt 0.512082 0.757710
vt 0.756041 0.757710
vt 0.756041 1.000000
vt 0.512082 1.000000
vt 0.756041 0.000000
vt 1.000000 0.000000
vt 1.000000 0.757710
vt 0.756041 0.757710
vn 0.0000 -1.0000 -0.0000
vn 0.0000 1.0000 -0.0000
vn 1.0000 -0.0000 0.0000
vn -0.0000 -0.0000 1.0000
vn -1.0000 -0.0000 -0.0000
vn 0.0000 0.0000 -1.0000
g Cube_Cube_Material
usemtl Material
s off
f 1/1/1 2/2/1 3/3/1 4/4/1
f 5/5/2 8/6/2 7/7/2 6/8/2
f 1/9/3 5/10/3 6/11/3 2/12/3
f 2/13/4 6/14/4 7/15/4 3/16/4
f 3/17/5 7/18/5 8/19/5 4/20/5
f 5/21/6 1/22/6 4/23/6 8/24/6
